<svg xmlns="http://www.w3.org/2000/svg" xmlns:xlink="http://www.w3.org/1999/xlink" width="793" zoomAndPan="magnify" viewBox="0 0 594.95996 842.24997" height="1122" preserveAspectRatio="xMidYMid meet" version="1.0"><defs><clipPath id="4e1d100806"><path d="M 184.914062 297.730469 L 410.460938 297.730469 L 410.460938 543.511719 L 184.914062 543.511719 Z M 184.914062 297.730469 " clip-rule="nonzero"/></clipPath></defs><g clip-path="url(#4e1d100806)"><path fill="#2196f3" d="M 409.039062 299.410156 C 408.550781 298.875 407.976562 298.460938 407.316406 298.167969 C 406.652344 297.875 405.960938 297.730469 405.238281 297.730469 L 190.136719 297.730469 C 189.777344 297.730469 189.421875 297.765625 189.070312 297.839844 C 188.71875 297.910156 188.378906 298.019531 188.050781 298.164062 C 187.722656 298.308594 187.414062 298.484375 187.121094 298.695312 C 186.832031 298.90625 186.5625 299.140625 186.324219 299.40625 C 186.082031 299.671875 185.871094 299.960938 185.6875 300.269531 C 185.507812 300.582031 185.359375 300.90625 185.25 301.246094 C 185.136719 301.585938 185.058594 301.9375 185.019531 302.292969 C 184.980469 302.648438 184.980469 303.007812 185.015625 303.363281 L 205.5 508.183594 C 205.550781 508.671875 205.667969 509.148438 205.855469 509.605469 C 206.039062 510.0625 206.285156 510.484375 206.59375 510.871094 C 206.902344 511.257812 207.257812 511.589844 207.664062 511.875 C 208.070312 512.15625 208.503906 512.378906 208.972656 512.535156 L 301.160156 543.257812 C 301.695312 543.429688 302.246094 543.515625 302.808594 543.511719 C 303.429688 543.511719 304.03125 543.402344 304.613281 543.183594 L 386.554688 512.460938 C 387.003906 512.296875 387.421875 512.070312 387.808594 511.789062 C 388.195312 511.503906 388.535156 511.175781 388.828125 510.796875 C 389.121094 510.417969 389.355469 510.007812 389.535156 509.5625 C 389.710938 509.117188 389.824219 508.65625 389.875 508.183594 L 410.359375 303.363281 C 410.429688 302.640625 410.347656 301.9375 410.117188 301.246094 C 409.890625 300.558594 409.527344 299.945312 409.039062 299.410156 Z M 409.039062 299.410156 " fill-opacity="1" fill-rule="nonzero"/></g><path fill="#fafafa" d="M 302.808594 492.308594 C 302.257812 492.308594 301.71875 492.222656 301.191406 492.050781 L 255.097656 476.691406 C 254.226562 476.402344 253.488281 475.914062 252.882812 475.226562 C 252.273438 474.542969 251.878906 473.75 251.695312 472.851562 L 246.574219 447.25 C 246.507812 446.917969 246.472656 446.585938 246.472656 446.25 C 246.46875 445.914062 246.5 445.578125 246.566406 445.25 C 246.628906 444.917969 246.726562 444.597656 246.851562 444.289062 C 246.980469 443.976562 247.136719 443.679688 247.320312 443.398438 C 247.507812 443.117188 247.71875 442.859375 247.953125 442.621094 C 248.191406 442.378906 248.449219 442.167969 248.726562 441.980469 C 249.003906 441.789062 249.300781 441.632812 249.609375 441.5 C 249.921875 441.371094 250.242188 441.273438 250.570312 441.203125 C 250.898438 441.136719 251.234375 441.101562 251.570312 441.101562 C 251.90625 441.097656 252.238281 441.128906 252.570312 441.195312 C 252.898438 441.257812 253.21875 441.355469 253.53125 441.480469 C 253.84375 441.609375 254.140625 441.765625 254.417969 441.949219 C 254.699219 442.136719 254.960938 442.347656 255.199219 442.585938 C 255.4375 442.820312 255.652344 443.078125 255.839844 443.355469 C 256.027344 443.636719 256.1875 443.929688 256.316406 444.242188 C 256.449219 444.550781 256.546875 444.871094 256.613281 445.199219 L 261.152344 467.882812 L 302.707031 481.761719 L 339.234375 468.066406 L 358.183594 359.175781 L 241.351562 359.175781 C 241.015625 359.175781 240.683594 359.144531 240.351562 359.078125 C 240.023438 359.011719 239.703125 358.914062 239.390625 358.789062 C 239.082031 358.660156 238.785156 358.5 238.507812 358.3125 C 238.226562 358.128906 237.96875 357.914062 237.730469 357.675781 C 237.492188 357.4375 237.28125 357.179688 237.09375 356.902344 C 236.90625 356.621094 236.75 356.328125 236.621094 356.015625 C 236.492188 355.707031 236.394531 355.386719 236.328125 355.054688 C 236.261719 354.726562 236.230469 354.394531 236.230469 354.054688 C 236.230469 353.71875 236.261719 353.386719 236.328125 353.058594 C 236.394531 352.726562 236.492188 352.40625 236.621094 352.097656 C 236.75 351.785156 236.90625 351.492188 237.09375 351.210938 C 237.28125 350.933594 237.492188 350.671875 237.730469 350.4375 C 237.96875 350.199219 238.226562 349.984375 238.507812 349.800781 C 238.785156 349.613281 239.082031 349.453125 239.390625 349.324219 C 239.703125 349.195312 240.023438 349.101562 240.351562 349.035156 C 240.683594 348.96875 241.015625 348.9375 241.351562 348.9375 L 364.265625 348.9375 C 364.640625 348.9375 365.007812 348.976562 365.375 349.054688 C 365.738281 349.136719 366.089844 349.253906 366.429688 349.414062 C 366.769531 349.570312 367.085938 349.761719 367.382812 349.992188 C 367.679688 350.21875 367.949219 350.472656 368.191406 350.761719 C 368.429688 351.046875 368.636719 351.355469 368.808594 351.6875 C 368.984375 352.015625 369.117188 352.363281 369.214844 352.722656 C 369.3125 353.085938 369.371094 353.453125 369.386719 353.824219 C 369.402344 354.199219 369.378906 354.570312 369.316406 354.9375 L 348.832031 472.707031 C 348.675781 473.601562 348.304688 474.398438 347.726562 475.09375 C 347.148438 475.792969 346.433594 476.300781 345.582031 476.621094 L 304.613281 491.980469 C 304.03125 492.199219 303.429688 492.308594 302.808594 492.308594 Z M 302.808594 492.308594 " fill-opacity="1" fill-rule="nonzero"/><path fill="#fafafa" d="M 354.023438 410.382812 L 246.472656 410.382812 C 246.136719 410.382812 245.804688 410.347656 245.472656 410.28125 C 245.144531 410.21875 244.824219 410.121094 244.511719 409.992188 C 244.203125 409.863281 243.90625 409.707031 243.628906 409.519531 C 243.347656 409.332031 243.089844 409.121094 242.851562 408.882812 C 242.613281 408.644531 242.402344 408.386719 242.214844 408.105469 C 242.027344 407.824219 241.871094 407.53125 241.742188 407.21875 C 241.613281 406.910156 241.515625 406.589844 241.449219 406.261719 C 241.382812 405.929688 241.351562 405.597656 241.351562 405.261719 C 241.351562 404.925781 241.382812 404.589844 241.449219 404.261719 C 241.515625 403.933594 241.613281 403.613281 241.742188 403.300781 C 241.871094 402.992188 242.027344 402.695312 242.214844 402.417969 C 242.402344 402.136719 242.613281 401.878906 242.851562 401.640625 C 243.089844 401.402344 243.347656 401.191406 243.628906 401.003906 C 243.90625 400.816406 244.203125 400.660156 244.511719 400.53125 C 244.824219 400.402344 245.144531 400.304688 245.472656 400.238281 C 245.804688 400.171875 246.136719 400.140625 246.472656 400.140625 L 354.023438 400.140625 C 354.359375 400.140625 354.691406 400.171875 355.023438 400.238281 C 355.351562 400.304688 355.671875 400.402344 355.984375 400.53125 C 356.292969 400.660156 356.589844 400.816406 356.867188 401.003906 C 357.148438 401.191406 357.40625 401.402344 357.644531 401.640625 C 357.882812 401.878906 358.09375 402.136719 358.28125 402.417969 C 358.46875 402.695312 358.625 402.992188 358.753906 403.300781 C 358.882812 403.613281 358.980469 403.933594 359.046875 404.261719 C 359.113281 404.589844 359.144531 404.925781 359.144531 405.261719 C 359.144531 405.597656 359.113281 405.929688 359.046875 406.261719 C 358.980469 406.589844 358.882812 406.910156 358.753906 407.21875 C 358.625 407.53125 358.46875 407.824219 358.28125 408.105469 C 358.09375 408.386719 357.882812 408.644531 357.644531 408.882812 C 357.40625 409.121094 357.148438 409.332031 356.867188 409.519531 C 356.589844 409.707031 356.292969 409.863281 355.984375 409.992188 C 355.671875 410.121094 355.351562 410.21875 355.023438 410.28125 C 354.691406 410.347656 354.359375 410.382812 354.023438 410.382812 Z M 354.023438 410.382812 " fill-opacity="1" fill-rule="nonzero"/></svg>