<svg xmlns="http://www.w3.org/2000/svg" xmlns:xlink="http://www.w3.org/1999/xlink" width="793" zoomAndPan="magnify" viewBox="0 0 594.95996 842.24997" height="1122" preserveAspectRatio="xMidYMid meet" version="1.0"><defs><clipPath id="24ec4a0118"><path d="M 179 303 L 416.207031 303 L 416.207031 540.957031 L 179 540.957031 Z M 179 303 " clip-rule="nonzero"/></clipPath></defs><g clip-path="url(#24ec4a0118)"><path fill="#000000" d="M 348.984375 540.945312 C 348.203125 540.945312 347.429688 540.867188 346.667969 540.714844 C 345.902344 540.5625 345.160156 540.335938 344.4375 540.039062 C 343.71875 539.738281 343.035156 539.371094 342.386719 538.9375 C 341.738281 538.503906 341.136719 538.011719 340.585938 537.457031 C 340.035156 536.90625 339.542969 536.304688 339.109375 535.652344 C 338.675781 535.003906 338.308594 534.316406 338.011719 533.59375 C 337.710938 532.871094 337.488281 532.128906 337.335938 531.359375 C 337.183594 530.59375 337.105469 529.820312 337.105469 529.039062 L 337.105469 498.082031 C 337.292969 496.300781 337.289062 494.519531 337.101562 492.738281 C 336.914062 490.960938 336.542969 489.21875 335.992188 487.515625 C 335.4375 485.8125 334.714844 484.1875 333.824219 482.636719 C 332.929688 481.085938 331.886719 479.648438 330.691406 478.316406 C 329.953125 477.511719 329.335938 476.621094 328.839844 475.648438 C 328.347656 474.675781 327.992188 473.652344 327.777344 472.578125 C 327.566406 471.507812 327.5 470.425781 327.582031 469.335938 C 327.664062 468.246094 327.894531 467.1875 328.269531 466.160156 C 328.644531 465.132812 329.148438 464.175781 329.785156 463.289062 C 330.421875 462.402344 331.167969 461.617188 332.019531 460.933594 C 332.875 460.253906 333.800781 459.699219 334.808594 459.273438 C 335.8125 458.847656 336.855469 458.570312 337.9375 458.433594 C 366.917969 454.980469 393.640625 445.691406 393.640625 395.328125 C 393.644531 390.625 392.96875 386.019531 391.613281 381.519531 C 390.257812 377.015625 388.28125 372.808594 385.683594 368.894531 C 384.496094 367.109375 383.492188 365.226562 382.675781 363.242188 C 381.855469 361.261719 381.238281 359.21875 380.820312 357.113281 C 380.402344 355.011719 380.195312 352.886719 380.191406 350.742188 C 380.191406 348.59375 380.398438 346.46875 380.8125 344.367188 C 381.894531 338.769531 381.894531 333.171875 380.8125 327.578125 C 371.867188 330.609375 363.59375 334.9375 355.992188 340.554688 C 355.277344 341.0625 354.515625 341.488281 353.707031 341.828125 C 352.898438 342.167969 352.066406 342.414062 351.203125 342.570312 C 350.339844 342.722656 349.472656 342.78125 348.597656 342.742188 C 347.71875 342.703125 346.859375 342.570312 346.015625 342.34375 C 340.679688 340.832031 335.269531 339.695312 329.78125 338.933594 C 324.292969 338.167969 318.777344 337.789062 313.234375 337.789062 C 307.691406 337.789062 302.175781 338.167969 296.6875 338.933594 C 291.199219 339.695312 285.785156 340.832031 280.453125 342.34375 C 279.609375 342.570312 278.746094 342.703125 277.871094 342.742188 C 276.996094 342.78125 276.128906 342.722656 275.265625 342.570312 C 274.402344 342.414062 273.566406 342.167969 272.761719 341.828125 C 271.953125 341.488281 271.191406 341.0625 270.476562 340.554688 C 262.824219 334.867188 254.472656 330.542969 245.417969 327.578125 C 244.277344 333.171875 244.277344 338.769531 245.417969 344.367188 C 245.800781 346.496094 245.980469 348.648438 245.957031 350.8125 C 245.929688 352.980469 245.695312 355.125 245.257812 357.246094 C 244.820312 359.367188 244.1875 361.429688 243.355469 363.425781 C 242.523438 365.425781 241.507812 367.328125 240.308594 369.132812 C 237.722656 373.074219 235.75 377.304688 234.394531 381.824219 C 233.042969 386.34375 232.359375 390.964844 232.351562 395.683594 C 232.351562 442 254.679688 454.382812 288.171875 458.667969 C 289.269531 458.804688 290.324219 459.089844 291.34375 459.523438 C 292.359375 459.953125 293.296875 460.515625 294.15625 461.210938 C 295.019531 461.90625 295.765625 462.703125 296.40625 463.605469 C 297.042969 464.511719 297.546875 465.484375 297.914062 466.527344 C 298.257812 467.542969 298.464844 468.582031 298.527344 469.652344 C 298.59375 470.71875 298.515625 471.777344 298.296875 472.824219 C 298.078125 473.871094 297.722656 474.871094 297.234375 475.824219 C 296.746094 476.777344 296.140625 477.648438 295.417969 478.433594 C 294.261719 479.671875 293.246094 481.015625 292.371094 482.464844 C 291.492188 483.914062 290.773438 485.4375 290.210938 487.035156 C 289.648438 488.632812 289.257812 490.273438 289.03125 491.953125 C 288.808594 493.632812 288.761719 495.320312 288.886719 497.007812 L 288.886719 529.039062 C 288.886719 529.820312 288.808594 530.59375 288.65625 531.359375 C 288.507812 532.128906 288.28125 532.871094 287.980469 533.59375 C 287.683594 534.316406 287.316406 535.003906 286.882812 535.652344 C 286.453125 536.304688 285.960938 536.90625 285.40625 537.457031 C 284.855469 538.011719 284.257812 538.503906 283.609375 538.9375 C 282.960938 539.371094 282.273438 539.738281 281.554688 540.039062 C 280.832031 540.335938 280.089844 540.5625 279.328125 540.714844 C 278.5625 540.867188 277.789062 540.945312 277.007812 540.945312 C 276.230469 540.945312 275.457031 540.867188 274.691406 540.714844 C 273.925781 540.5625 273.183594 540.335938 272.464844 540.039062 C 271.742188 539.738281 271.058594 539.371094 270.410156 538.9375 C 269.761719 538.503906 269.164062 538.011719 268.609375 537.457031 C 268.058594 536.90625 267.566406 536.304688 267.132812 535.652344 C 266.699219 535.003906 266.335938 534.316406 266.035156 533.59375 C 265.738281 532.871094 265.511719 532.128906 265.359375 531.359375 C 265.207031 530.59375 265.132812 529.820312 265.132812 529.039062 L 265.132812 522.25 C 262.226562 522.585938 259.308594 522.742188 256.382812 522.714844 C 253.457031 522.691406 250.546875 522.488281 247.644531 522.101562 C 244.746094 521.71875 241.878906 521.15625 239.046875 520.417969 C 236.214844 519.679688 233.441406 518.769531 230.71875 517.6875 C 228 516.605469 225.355469 515.363281 222.789062 513.953125 C 220.222656 512.546875 217.753906 510.984375 215.378906 509.273438 C 213.003906 507.5625 210.742188 505.707031 208.59375 503.714844 C 206.445312 501.722656 204.429688 499.609375 202.542969 497.367188 C 198.609375 493 194.019531 489.507812 188.765625 486.886719 C 188.007812 486.695312 187.277344 486.425781 186.574219 486.085938 C 185.867188 485.746094 185.203125 485.34375 184.578125 484.871094 C 183.953125 484.402344 183.382812 483.875 182.863281 483.289062 C 182.339844 482.707031 181.882812 482.078125 181.484375 481.402344 C 181.085938 480.726562 180.757812 480.019531 180.5 479.28125 C 180.242188 478.542969 180.058594 477.785156 179.949219 477.007812 C 179.839844 476.234375 179.808594 475.453125 179.851562 474.671875 C 179.894531 473.890625 180.011719 473.121094 180.207031 472.363281 C 180.402344 471.601562 180.671875 470.871094 181.007812 470.164062 C 181.347656 469.460938 181.753906 468.792969 182.222656 468.167969 C 182.691406 467.542969 183.21875 466.96875 183.800781 466.445312 C 184.382812 465.921875 185.011719 465.464844 185.683594 465.066406 C 186.355469 464.667969 187.0625 464.339844 187.800781 464.082031 C 188.539062 463.820312 189.292969 463.636719 190.066406 463.527344 C 190.839844 463.417969 191.617188 463.386719 192.398438 463.429688 C 193.175781 463.472656 193.945312 463.59375 194.703125 463.789062 C 199.269531 465.457031 203.566406 467.664062 207.585938 470.402344 C 211.605469 473.144531 215.230469 476.335938 218.457031 479.984375 C 230.332031 491.890625 242.210938 502.367188 264.777344 498.082031 C 264.375 491.617188 265.285156 485.347656 267.507812 479.269531 C 243.042969 473.078125 208.125 455.453125 208.125 395.921875 C 208.117188 392.414062 208.363281 388.925781 208.867188 385.457031 C 209.371094 381.988281 210.128906 378.574219 211.132812 375.214844 C 212.140625 371.859375 213.386719 368.589844 214.871094 365.417969 C 216.355469 362.242188 218.066406 359.195312 220 356.273438 C 220.722656 355.1875 221.21875 354.007812 221.484375 352.730469 C 221.75 351.453125 221.769531 350.175781 221.542969 348.890625 C 220.34375 342.464844 220.078125 336 220.746094 329.496094 C 221.410156 322.992188 222.984375 316.71875 225.464844 310.671875 C 226.144531 309.039062 227.140625 307.628906 228.449219 306.441406 C 229.757812 305.253906 231.257812 304.402344 232.945312 303.882812 C 236.984375 302.691406 251.472656 300.3125 278.910156 318.171875 C 290.015625 315.492188 301.277344 314.152344 312.699219 314.152344 C 324.121094 314.152344 335.382812 315.492188 346.488281 318.171875 C 373.925781 300.3125 388.414062 302.574219 392.335938 303.882812 C 394.023438 304.402344 395.519531 305.253906 396.832031 306.441406 C 398.140625 307.628906 399.136719 309.039062 399.816406 310.671875 C 402.300781 316.738281 403.875 323.03125 404.542969 329.554688 C 405.210938 336.078125 404.941406 342.5625 403.734375 349.007812 C 403.492188 350.183594 403.480469 351.359375 403.707031 352.535156 C 403.933594 353.710938 404.378906 354.800781 405.042969 355.796875 C 406.980469 358.726562 408.695312 361.785156 410.183594 364.96875 C 411.671875 368.152344 412.917969 371.429688 413.925781 374.796875 C 414.933594 378.164062 415.6875 381.589844 416.1875 385.070312 C 416.6875 388.550781 416.933594 392.046875 416.917969 395.566406 C 416.917969 455.929688 382.238281 473.433594 357.535156 478.910156 C 359.734375 485.363281 360.605469 491.992188 360.148438 498.796875 L 360.148438 529.039062 C 360.148438 529.789062 360.078125 530.535156 359.941406 531.277344 C 359.800781 532.015625 359.59375 532.734375 359.316406 533.4375 C 359.039062 534.136719 358.703125 534.804688 358.300781 535.4375 C 357.898438 536.074219 357.4375 536.667969 356.925781 537.214844 C 356.410156 537.761719 355.847656 538.257812 355.242188 538.699219 C 354.632812 539.140625 353.988281 539.523438 353.308594 539.839844 C 352.628906 540.160156 351.925781 540.414062 351.199219 540.597656 C 350.472656 540.785156 349.734375 540.898438 348.984375 540.945312 Z M 348.984375 540.945312 " fill-opacity="1" fill-rule="nonzero"/></g></svg>