<svg xmlns="http://www.w3.org/2000/svg" xmlns:xlink="http://www.w3.org/1999/xlink" width="793" zoomAndPan="magnify" viewBox="0 0 594.95996 842.24997" height="1122" preserveAspectRatio="xMidYMid meet" version="1.0"><defs><clipPath id="57a7010d97"><path d="M 179 303 L 416.207031 303 L 416.207031 540.957031 L 179 540.957031 Z M 179 303 " clip-rule="nonzero"/></clipPath></defs><g clip-path="url(#57a7010d97)"><path fill="#ffffff" d="M 349.234375 540.699219 C 348.453125 540.699219 347.679688 540.621094 346.914062 540.46875 C 346.148438 540.316406 345.40625 540.09375 344.683594 539.792969 C 343.960938 539.496094 343.277344 539.128906 342.628906 538.695312 C 341.976562 538.261719 341.378906 537.765625 340.824219 537.214844 C 340.273438 536.664062 339.78125 536.0625 339.34375 535.414062 C 338.910156 534.761719 338.546875 534.078125 338.246094 533.355469 C 337.949219 532.632812 337.722656 531.890625 337.570312 531.125 C 337.417969 530.359375 337.339844 529.585938 337.339844 528.804688 L 337.339844 497.878906 C 337.527344 496.101562 337.523438 494.320312 337.335938 492.542969 C 337.148438 490.765625 336.777344 489.027344 336.222656 487.324219 C 335.671875 485.625 334.945312 484 334.050781 482.453125 C 333.160156 480.902344 332.113281 479.464844 330.917969 478.132812 C 330.175781 477.332031 329.558594 476.441406 329.0625 475.46875 C 328.566406 474.496094 328.214844 473.472656 328 472.402344 C 327.785156 471.332031 327.71875 470.25 327.804688 469.164062 C 327.886719 468.074219 328.117188 467.015625 328.488281 465.988281 C 328.863281 464.964844 329.371094 464.007812 330.007812 463.121094 C 330.648438 462.234375 331.394531 461.453125 332.246094 460.769531 C 333.101562 460.089844 334.03125 459.535156 335.039062 459.113281 C 336.042969 458.6875 337.089844 458.40625 338.171875 458.269531 C 367.195312 454.820312 393.957031 445.542969 393.957031 395.230469 C 393.964844 390.53125 393.285156 385.933594 391.929688 381.4375 C 390.570312 376.9375 388.59375 372.734375 385.988281 368.824219 C 384.800781 367.039062 383.796875 365.160156 382.976562 363.179688 C 382.15625 361.199219 381.539062 359.15625 381.121094 357.054688 C 380.703125 354.953125 380.492188 352.832031 380.492188 350.6875 C 380.488281 348.546875 380.695312 346.421875 381.113281 344.320312 C 382.195312 338.730469 382.195312 333.140625 381.113281 327.550781 C 372.152344 330.578125 363.867188 334.902344 356.253906 340.515625 C 355.539062 341.023438 354.777344 341.445312 353.964844 341.785156 C 353.15625 342.125 352.320312 342.371094 351.457031 342.527344 C 350.59375 342.679688 349.722656 342.738281 348.847656 342.699219 C 347.96875 342.660156 347.109375 342.527344 346.261719 342.300781 C 340.921875 340.789062 335.5 339.65625 330.003906 338.890625 C 324.507812 338.128906 318.984375 337.75 313.433594 337.75 C 307.882812 337.75 302.359375 338.128906 296.863281 338.890625 C 291.363281 339.65625 285.945312 340.789062 280.605469 342.300781 C 279.757812 342.527344 278.894531 342.660156 278.019531 342.699219 C 277.140625 342.738281 276.273438 342.679688 275.410156 342.527344 C 274.546875 342.371094 273.707031 342.125 272.898438 341.785156 C 272.089844 341.445312 271.328125 341.023438 270.613281 340.515625 C 262.949219 334.832031 254.582031 330.511719 245.515625 327.550781 C 244.371094 333.140625 244.371094 338.730469 245.515625 344.320312 C 245.902344 346.449219 246.082031 348.597656 246.054688 350.761719 C 246.027344 352.925781 245.796875 355.066406 245.359375 357.1875 C 244.917969 359.308594 244.285156 361.367188 243.449219 363.363281 C 242.617188 365.359375 241.601562 367.257812 240.402344 369.0625 C 237.808594 373 235.835938 377.226562 234.480469 381.742188 C 233.121094 386.257812 232.441406 390.871094 232.429688 395.585938 C 232.429688 441.855469 254.792969 454.226562 288.335938 458.507812 C 289.433594 458.644531 290.492188 458.929688 291.507812 459.359375 C 292.527344 459.789062 293.46875 460.351562 294.328125 461.046875 C 295.191406 461.738281 295.941406 462.539062 296.578125 463.441406 C 297.21875 464.34375 297.722656 465.316406 298.089844 466.359375 C 298.433594 467.371094 298.640625 468.410156 298.707031 469.476562 C 298.769531 470.546875 298.695312 471.601562 298.472656 472.648438 C 298.253906 473.695312 297.898438 474.695312 297.410156 475.644531 C 296.921875 476.597656 296.316406 477.464844 295.589844 478.253906 C 294.433594 479.488281 293.417969 480.832031 292.539062 482.277344 C 291.660156 483.726562 290.9375 485.25 290.375 486.84375 C 289.8125 488.441406 289.417969 490.078125 289.195312 491.757812 C 288.972656 493.4375 288.921875 495.121094 289.050781 496.808594 L 289.050781 528.804688 C 289.050781 529.585938 288.972656 530.359375 288.820312 531.125 C 288.667969 531.890625 288.441406 532.632812 288.144531 533.355469 C 287.84375 534.078125 287.480469 534.761719 287.042969 535.414062 C 286.609375 536.0625 286.117188 536.664062 285.566406 537.214844 C 285.011719 537.765625 284.414062 538.261719 283.761719 538.695312 C 283.113281 539.128906 282.429688 539.496094 281.707031 539.792969 C 280.984375 540.09375 280.242188 540.316406 279.476562 540.46875 C 278.710938 540.621094 277.9375 540.699219 277.15625 540.699219 C 276.375 540.699219 275.601562 540.621094 274.835938 540.46875 C 274.066406 540.316406 273.324219 540.09375 272.601562 539.792969 C 271.882812 539.496094 271.195312 539.128906 270.546875 538.695312 C 269.898438 538.261719 269.296875 537.765625 268.742188 537.214844 C 268.191406 536.664062 267.699219 536.0625 267.265625 535.414062 C 266.832031 534.761719 266.464844 534.078125 266.164062 533.355469 C 265.867188 532.632812 265.640625 531.890625 265.488281 531.125 C 265.335938 530.359375 265.261719 529.585938 265.261719 528.804688 L 265.261719 522.023438 C 262.347656 522.359375 259.429688 522.515625 256.5 522.488281 C 253.570312 522.464844 250.652344 522.261719 247.746094 521.875 C 244.84375 521.492188 241.972656 520.929688 239.136719 520.191406 C 236.300781 519.453125 233.519531 518.546875 230.796875 517.464844 C 228.074219 516.386719 225.425781 515.140625 222.855469 513.734375 C 220.285156 512.328125 217.808594 510.769531 215.433594 509.058594 C 213.054688 507.347656 210.789062 505.5 208.636719 503.507812 C 206.488281 501.519531 204.464844 499.402344 202.578125 497.164062 C 198.640625 492.800781 194.039062 489.3125 188.777344 486.699219 C 188.019531 486.503906 187.289062 486.234375 186.585938 485.898438 C 185.878906 485.558594 185.214844 485.152344 184.589844 484.683594 C 183.960938 484.210938 183.390625 483.6875 182.867188 483.101562 C 182.347656 482.519531 181.886719 481.890625 181.488281 481.21875 C 181.089844 480.542969 180.761719 479.835938 180.503906 479.097656 C 180.246094 478.359375 180.0625 477.601562 179.953125 476.828125 C 179.839844 476.054688 179.808594 475.277344 179.851562 474.496094 C 179.894531 473.714844 180.015625 472.945312 180.210938 472.1875 C 180.40625 471.429688 180.671875 470.695312 181.011719 469.992188 C 181.351562 469.285156 181.757812 468.621094 182.226562 467.996094 C 182.699219 467.371094 183.226562 466.796875 183.808594 466.277344 C 184.390625 465.753906 185.019531 465.292969 185.695312 464.898438 C 186.367188 464.5 187.074219 464.171875 187.8125 463.914062 C 188.550781 463.65625 189.308594 463.472656 190.082031 463.363281 C 190.859375 463.253906 191.636719 463.21875 192.417969 463.261719 C 193.199219 463.308594 193.96875 463.425781 194.726562 463.621094 C 199.300781 465.289062 203.601562 467.492188 207.628906 470.230469 C 211.652344 472.96875 215.285156 476.15625 218.515625 479.800781 C 230.410156 491.695312 242.304688 502.160156 264.902344 497.878906 C 264.5 491.421875 265.414062 485.160156 267.640625 479.085938 C 243.136719 472.902344 208.167969 455.296875 208.167969 395.824219 C 208.160156 392.320312 208.40625 388.835938 208.914062 385.371094 C 209.417969 381.90625 210.175781 378.496094 211.183594 375.140625 C 212.191406 371.785156 213.4375 368.523438 214.925781 365.351562 C 216.414062 362.179688 218.125 359.132812 220.0625 356.214844 C 220.785156 355.132812 221.28125 353.953125 221.546875 352.675781 C 221.8125 351.402344 221.835938 350.125 221.609375 348.839844 C 220.40625 342.421875 220.140625 335.964844 220.808594 329.464844 C 221.476562 322.96875 223.050781 316.699219 225.53125 310.660156 C 226.214844 309.027344 227.210938 307.621094 228.523438 306.433594 C 229.835938 305.25 231.335938 304.398438 233.027344 303.878906 C 237.070312 302.691406 251.582031 300.3125 279.058594 318.152344 C 290.179688 315.476562 301.460938 314.140625 312.898438 314.140625 C 324.335938 314.140625 335.617188 315.476562 346.738281 318.152344 C 374.214844 300.3125 388.726562 302.570312 392.648438 303.878906 C 394.339844 304.398438 395.839844 305.25 397.152344 306.433594 C 398.464844 307.621094 399.460938 309.027344 400.144531 310.660156 C 402.632812 316.71875 404.210938 323.007812 404.878906 329.527344 C 405.546875 336.042969 405.277344 342.519531 404.070312 348.960938 C 403.824219 350.132812 403.8125 351.304688 404.039062 352.480469 C 404.265625 353.65625 404.714844 354.742188 405.378906 355.738281 C 407.320312 358.667969 409.035156 361.722656 410.527344 364.902344 C 412.015625 368.082031 413.265625 371.355469 414.273438 374.71875 C 415.28125 378.085938 416.035156 381.507812 416.539062 384.984375 C 417.042969 388.460938 417.285156 391.953125 417.273438 395.46875 C 417.273438 455.773438 382.539062 473.257812 357.800781 478.730469 C 360 485.175781 360.871094 491.796875 360.417969 498.59375 L 360.417969 528.804688 C 360.417969 529.554688 360.347656 530.300781 360.207031 531.039062 C 360.066406 531.777344 359.859375 532.5 359.582031 533.199219 C 359.308594 533.898438 358.96875 534.5625 358.566406 535.199219 C 358.164062 535.832031 357.703125 536.425781 357.1875 536.972656 C 356.671875 537.519531 356.113281 538.015625 355.503906 538.457031 C 354.894531 538.898438 354.25 539.277344 353.570312 539.597656 C 352.886719 539.914062 352.183594 540.167969 351.453125 540.351562 C 350.726562 540.539062 349.984375 540.652344 349.234375 540.699219 Z M 349.234375 540.699219 " fill-opacity="1" fill-rule="nonzero"/></g></svg>