<svg xmlns="http://www.w3.org/2000/svg" xmlns:xlink="http://www.w3.org/1999/xlink" width="793" zoomAndPan="magnify" viewBox="0 0 594.95996 842.24997" height="1122" preserveAspectRatio="xMidYMid meet" version="1.0"><defs><clipPath id="ad9a8c4aed"><path d="M 173.414062 285 L 421 285 L 421 559.964844 L 173.414062 559.964844 Z M 173.414062 285 " clip-rule="nonzero"/></clipPath></defs><g clip-path="url(#ad9a8c4aed)"><path stroke-linecap="round" transform="matrix(13.744665, 0, 0, 13.726271, 145.926403, 257.932867)" fill="none" stroke-linejoin="round" d="M 10.000142 14.999233 C 9.347332 15.698736 8.989238 16.622774 9.000038 17.579254 L 9.000038 20.999361 M 13.999989 14.999233 C 14.652799 15.698736 15.010893 16.622774 15.000093 17.579254 L 15.000093 20.999361 M 9.000038 19.049405 C 8.105372 19.405417 7.135394 19.529494 6.179909 19.409401 C 4.660002 18.889185 5.059873 17.509247 4.280025 16.939229 C 3.905163 16.671437 3.460388 16.518332 2.999982 16.499265 M 18.999941 9.749264 C 18.999941 12.749328 17.050036 14.999233 12.000066 14.999233 C 6.950095 14.999233 4.999906 12.749328 4.999906 9.749264 C 4.975181 8.708547 5.208794 7.677791 5.68 6.7492 C 5.340095 5.279334 5.469975 3.469392 6.200088 3.109396 C 6.929916 2.7494 8.470003 3.409346 9.740098 4.259392 C 10.486126 4.126208 11.242101 4.059331 12.000066 4.059331 C 12.757177 4.052501 13.513437 4.112832 14.260033 4.239187 C 15.530128 3.38914 17.140128 2.75936 17.800043 3.089191 C 18.459958 3.419306 18.660036 5.259129 18.320131 6.72928 C 18.794179 7.663847 19.028077 8.701718 18.999941 9.749264 Z M 18.999941 9.749264 " stroke="#475569" stroke-width="2" stroke-opacity="1" stroke-miterlimit="4"/></g></svg>