<svg xmlns="http://www.w3.org/2000/svg" xmlns:xlink="http://www.w3.org/1999/xlink" width="793" zoomAndPan="magnify" viewBox="0 0 594.95996 842.24997" height="1122" preserveAspectRatio="xMidYMid meet" version="1.0"><defs><clipPath id="5bfce0223e"><path d="M 189.964844 298 L 405.023438 298 L 405.023438 543 L 189.964844 543 Z M 189.964844 298 " clip-rule="nonzero"/></clipPath></defs><g clip-path="url(#5bfce0223e)"><path fill="#e44d26" d="M 209.488281 518.402344 L 189.90625 298.425781 L 405.085938 298.425781 L 385.488281 518.371094 L 297.359375 542.828125 Z M 209.488281 518.402344 " fill-opacity="1" fill-rule="nonzero"/></g><path fill="#f16529" d="M 368.703125 504.363281 L 385.457031 316.414062 L 297.496094 316.414062 L 297.496094 524.136719 Z M 368.703125 504.363281 " fill-opacity="1" fill-rule="nonzero"/><path fill="#ebebeb" d="M 297.402344 343.390625 L 229.941406 343.390625 L 237.210938 424.976562 L 297.496094 424.976562 L 297.496094 398 L 261.851562 398 L 259.386719 370.375 L 297.496094 370.375 L 297.496094 343.390625 Z M 297.496094 467.976562 L 297.382812 468.007812 L 267.378906 459.894531 L 265.472656 438.378906 L 238.414062 438.378906 L 242.191406 480.738281 L 297.375 496.015625 L 297.496094 495.976562 Z M 297.496094 467.976562 " fill-opacity="1" fill-rule="nonzero"/><path fill="#ffffff" d="M 297.402344 424.976562 L 330.578125 424.976562 L 327.527344 459.957031 L 297.480469 468.074219 L 297.480469 496.144531 L 352.710938 480.816406 L 360.105469 397.984375 L 297.496094 397.984375 Z M 364.238281 350.628906 L 364.878906 343.390625 L 297.390625 343.390625 L 297.390625 370.367188 L 362.457031 370.367188 L 362.988281 364.300781 Z M 364.238281 350.628906 " fill-opacity="1" fill-rule="nonzero"/></svg>