<svg xmlns="http://www.w3.org/2000/svg" xmlns:xlink="http://www.w3.org/1999/xlink" width="793" zoomAndPan="magnify" viewBox="0 0 594.95996 842.24997" height="1122" preserveAspectRatio="xMidYMid meet" version="1.0"><defs><clipPath id="b029652262"><path d="M 163 285.835938 L 432.644531 285.835938 L 432.644531 555 L 163 555 Z M 163 285.835938 " clip-rule="nonzero"/></clipPath><clipPath id="758f8eff98"><path d="M 163 285.835938 L 299 285.835938 L 299 555 L 163 555 Z M 163 285.835938 " clip-rule="nonzero"/></clipPath></defs><g clip-path="url(#b029652262)"><path fill="#ffc44d" d="M 172.921875 285.210938 C 170.222656 285.210938 167.652344 286.367188 165.867188 288.390625 C 164.082031 290.414062 163.25 293.109375 163.585938 295.785156 L 188.679688 496.539062 C 189.066406 499.660156 190.992188 502.382812 193.808594 503.789062 L 294.183594 553.976562 C 296.832031 555.300781 299.949219 555.300781 302.597656 553.976562 L 402.976562 503.789062 C 405.789062 502.382812 407.714844 499.660156 408.105469 496.539062 L 433.199219 295.785156 C 433.535156 293.109375 432.703125 290.414062 430.914062 288.390625 C 429.128906 286.367188 426.558594 285.210938 423.859375 285.210938 Z M 172.921875 285.210938 " fill-opacity="1" fill-rule="nonzero"/></g><g clip-path="url(#758f8eff98)"><path fill="#e5b045" d="M 298.390625 285.210938 L 298.390625 554.96875 C 296.949219 554.96875 295.507812 554.636719 294.183594 553.976562 L 193.808594 503.789062 C 190.992188 502.382812 189.066406 499.660156 188.679688 496.539062 L 163.585938 295.785156 C 163.25 293.109375 164.082031 290.414062 165.867188 288.390625 C 167.652344 286.367188 170.222656 285.210938 172.921875 285.210938 Z M 298.390625 285.210938 " fill-opacity="1" fill-rule="evenodd"/></g><path fill="#cfd8dc" d="M 279.570312 322.851562 C 284.769531 322.851562 288.980469 327.0625 288.980469 332.261719 L 288.980469 495.371094 C 288.980469 498.726562 287.195312 501.828125 284.292969 503.511719 C 281.394531 505.195312 277.816406 505.207031 274.902344 503.542969 L 230.988281 478.449219 C 226.476562 475.871094 224.910156 470.121094 227.488281 465.609375 C 230.066406 461.097656 235.8125 459.527344 240.328125 462.105469 L 270.160156 479.15625 L 270.160156 332.261719 C 270.160156 327.0625 274.375 322.851562 279.570312 322.851562 Z M 279.570312 322.851562 " fill-opacity="1" fill-rule="evenodd"/><path fill="#eceff1" d="M 307.804688 332.261719 C 307.804688 327.0625 312.015625 322.851562 317.214844 322.851562 L 379.949219 322.851562 C 385.144531 322.851562 389.359375 327.0625 389.359375 332.261719 C 389.359375 337.457031 385.144531 341.671875 379.949219 341.671875 L 326.625 341.671875 L 326.625 402.085938 L 371.632812 392.082031 C 374.566406 391.429688 377.632812 392.21875 379.890625 394.203125 C 382.144531 396.1875 383.320312 399.128906 383.046875 402.121094 L 376.773438 471.128906 C 376.476562 474.375 374.523438 477.238281 371.609375 478.695312 L 321.421875 503.789062 C 316.773438 506.113281 311.121094 504.226562 308.796875 499.578125 C 306.472656 494.929688 308.355469 489.277344 313.003906 486.953125 L 358.503906 464.203125 L 363.136719 413.25 L 319.253906 423 C 316.46875 423.621094 313.550781 422.941406 311.324219 421.15625 C 309.097656 419.371094 307.804688 416.671875 307.804688 413.816406 Z M 307.804688 332.261719 " fill-opacity="1" fill-rule="evenodd"/></svg>