<svg xmlns="http://www.w3.org/2000/svg" xmlns:xlink="http://www.w3.org/1999/xlink" width="793" zoomAndPan="magnify" viewBox="0 0 595.5 842.249979" height="1122" preserveAspectRatio="xMidYMid meet" version="1.0"><defs><clipPath id="2a992783ad"><path d="M 190.429688 312.410156 L 427.964844 312.410156 L 427.964844 549.949219 L 190.429688 549.949219 Z M 190.429688 312.410156 " clip-rule="nonzero"/></clipPath><clipPath id="3e3c014699"><path d="M 190.429688 347.628906 L 190.429688 515.089844 C 190.429688 534.539062 206.195312 550.308594 225.648438 550.308594 L 393.109375 550.308594 C 412.558594 550.308594 428.328125 534.539062 428.328125 515.089844 L 428.328125 347.628906 C 428.328125 328.175781 412.558594 312.410156 393.109375 312.410156 L 225.648438 312.410156 C 206.195312 312.410156 190.429688 328.175781 190.429688 347.628906 Z M 190.429688 347.628906 " clip-rule="nonzero"/></clipPath><clipPath id="d16fc464b6"><path d="M 248 379 L 285 379 L 285 416 L 248 416 Z M 248 379 " clip-rule="nonzero"/></clipPath><clipPath id="20e48b7d63"><path d="M 190.429688 347.628906 L 190.429688 515.089844 C 190.429688 534.539062 206.195312 550.308594 225.648438 550.308594 L 393.109375 550.308594 C 412.558594 550.308594 428.328125 534.539062 428.328125 515.089844 L 428.328125 347.628906 C 428.328125 328.175781 412.558594 312.410156 393.109375 312.410156 L 225.648438 312.410156 C 206.195312 312.410156 190.429688 328.175781 190.429688 347.628906 Z M 190.429688 347.628906 " clip-rule="nonzero"/></clipPath><clipPath id="03c1caa0ed"><path d="M 251 428 L 282 428 L 282 527 L 251 527 Z M 251 428 " clip-rule="nonzero"/></clipPath><clipPath id="77df7cdac4"><path d="M 190.429688 347.628906 L 190.429688 515.089844 C 190.429688 534.539062 206.195312 550.308594 225.648438 550.308594 L 393.109375 550.308594 C 412.558594 550.308594 428.328125 534.539062 428.328125 515.089844 L 428.328125 347.628906 C 428.328125 328.175781 412.558594 312.410156 393.109375 312.410156 L 225.648438 312.410156 C 206.195312 312.410156 190.429688 328.175781 190.429688 347.628906 Z M 190.429688 347.628906 " clip-rule="nonzero"/></clipPath><clipPath id="3ae956167f"><path d="M 301 428 L 331 428 L 331 527 L 301 527 Z M 301 428 " clip-rule="nonzero"/></clipPath><clipPath id="65b155ee0d"><path d="M 190.429688 347.628906 L 190.429688 515.089844 C 190.429688 534.539062 206.195312 550.308594 225.648438 550.308594 L 393.109375 550.308594 C 412.558594 550.308594 428.328125 534.539062 428.328125 515.089844 L 428.328125 347.628906 C 428.328125 328.175781 412.558594 312.410156 393.109375 312.410156 L 225.648438 312.410156 C 206.195312 312.410156 190.429688 328.175781 190.429688 347.628906 Z M 190.429688 347.628906 " clip-rule="nonzero"/></clipPath><clipPath id="daab1a1cc8"><path d="M 302 480 L 332 480 L 332 527 L 302 527 Z M 302 480 " clip-rule="nonzero"/></clipPath><clipPath id="811fc48839"><path d="M 190.429688 347.628906 L 190.429688 515.089844 C 190.429688 534.539062 206.195312 550.308594 225.648438 550.308594 L 393.109375 550.308594 C 412.558594 550.308594 428.328125 534.539062 428.328125 515.089844 L 428.328125 347.628906 C 428.328125 328.175781 412.558594 312.410156 393.109375 312.410156 L 225.648438 312.410156 C 206.195312 312.410156 190.429688 328.175781 190.429688 347.628906 Z M 190.429688 347.628906 " clip-rule="nonzero"/></clipPath><clipPath id="08d6ded0dc"><path d="M 321 425 L 397 425 L 397 527 L 321 527 Z M 321 425 " clip-rule="nonzero"/></clipPath><clipPath id="53756182cf"><path d="M 190.429688 347.628906 L 190.429688 515.089844 C 190.429688 534.539062 206.195312 550.308594 225.648438 550.308594 L 393.109375 550.308594 C 412.558594 550.308594 428.328125 534.539062 428.328125 515.089844 L 428.328125 347.628906 C 428.328125 328.175781 412.558594 312.410156 393.109375 312.410156 L 225.648438 312.410156 C 206.195312 312.410156 190.429688 328.175781 190.429688 347.628906 Z M 190.429688 347.628906 " clip-rule="nonzero"/></clipPath></defs><g clip-path="url(#2a992783ad)"><g clip-path="url(#3e3c014699)"><path fill="#ffffff" d="M 428.320312 514.128906 C 428.320312 534.089844 412.132812 550.277344 392.167969 550.277344 L 226.585938 550.277344 C 206.621094 550.277344 190.4375 534.089844 190.4375 514.128906 L 190.4375 348.542969 C 190.4375 328.578125 206.621094 312.394531 226.585938 312.394531 L 392.167969 312.394531 C 412.132812 312.394531 428.320312 328.578125 428.320312 348.542969 Z M 428.320312 514.128906 " fill-opacity="1" fill-rule="nonzero"/></g></g><g clip-path="url(#d16fc464b6)"><g clip-path="url(#20e48b7d63)"><path fill="#0b162c" d="M 284.5 397.265625 C 284.5 397.847656 284.472656 398.425781 284.414062 399.003906 C 284.359375 399.585938 284.273438 400.160156 284.160156 400.730469 C 284.046875 401.300781 283.902344 401.867188 283.734375 402.421875 C 283.566406 402.980469 283.371094 403.527344 283.148438 404.0625 C 282.925781 404.601562 282.675781 405.128906 282.402344 405.640625 C 282.128906 406.152344 281.828125 406.652344 281.503906 407.136719 C 281.183594 407.621094 280.835938 408.085938 280.464844 408.539062 C 280.097656 408.988281 279.707031 409.417969 279.296875 409.828125 C 278.882812 410.242188 278.453125 410.632812 278.003906 411 C 277.554688 411.371094 277.085938 411.714844 276.601562 412.039062 C 276.117188 412.363281 275.621094 412.660156 275.105469 412.9375 C 274.59375 413.210938 274.066406 413.457031 273.53125 413.679688 C 272.992188 413.90625 272.445312 414.101562 271.886719 414.269531 C 271.332031 414.4375 270.765625 414.578125 270.195312 414.691406 C 269.625 414.804688 269.050781 414.890625 268.472656 414.949219 C 267.890625 415.003906 267.3125 415.035156 266.730469 415.035156 C 266.148438 415.035156 265.566406 415.003906 264.988281 414.949219 C 264.410156 414.890625 263.832031 414.804688 263.261719 414.691406 C 262.691406 414.578125 262.128906 414.4375 261.570312 414.269531 C 261.015625 414.101562 260.46875 413.90625 259.929688 413.679688 C 259.390625 413.457031 258.867188 413.210938 258.351562 412.9375 C 257.839844 412.660156 257.339844 412.363281 256.855469 412.039062 C 256.375 411.714844 255.90625 411.371094 255.457031 411 C 255.007812 410.632812 254.574219 410.242188 254.164062 409.828125 C 253.753906 409.417969 253.363281 408.988281 252.992188 408.539062 C 252.625 408.085938 252.277344 407.621094 251.953125 407.136719 C 251.632812 406.652344 251.332031 406.152344 251.058594 405.640625 C 250.785156 405.128906 250.535156 404.601562 250.3125 404.0625 C 250.089844 403.527344 249.894531 402.980469 249.726562 402.421875 C 249.554688 401.867188 249.414062 401.300781 249.300781 400.730469 C 249.1875 400.160156 249.101562 399.585938 249.046875 399.003906 C 248.988281 398.425781 248.960938 397.847656 248.960938 397.265625 C 248.960938 396.683594 248.988281 396.101562 249.046875 395.523438 C 249.101562 394.941406 249.1875 394.367188 249.300781 393.796875 C 249.414062 393.226562 249.554688 392.664062 249.726562 392.105469 C 249.894531 391.546875 250.089844 391 250.3125 390.464844 C 250.535156 389.925781 250.785156 389.398438 251.058594 388.886719 C 251.332031 388.375 251.632812 387.875 251.953125 387.390625 C 252.277344 386.90625 252.625 386.441406 252.992188 385.992188 C 253.363281 385.539062 253.753906 385.109375 254.164062 384.699219 C 254.574219 384.285156 255.007812 383.894531 255.457031 383.527344 C 255.90625 383.15625 256.375 382.8125 256.855469 382.488281 C 257.339844 382.164062 257.839844 381.867188 258.351562 381.589844 C 258.867188 381.316406 259.390625 381.070312 259.929688 380.847656 C 260.46875 380.625 261.015625 380.425781 261.570312 380.257812 C 262.128906 380.089844 262.691406 379.949219 263.261719 379.835938 C 263.832031 379.722656 264.410156 379.636719 264.988281 379.578125 C 265.566406 379.523438 266.148438 379.492188 266.730469 379.492188 C 267.3125 379.492188 267.890625 379.523438 268.472656 379.578125 C 269.050781 379.636719 269.625 379.722656 270.195312 379.835938 C 270.765625 379.949219 271.332031 380.089844 271.886719 380.257812 C 272.445312 380.425781 272.992188 380.625 273.53125 380.847656 C 274.066406 381.070312 274.59375 381.316406 275.105469 381.589844 C 275.621094 381.867188 276.117188 382.164062 276.601562 382.488281 C 277.085938 382.8125 277.554688 383.15625 278.003906 383.527344 C 278.453125 383.894531 278.882812 384.285156 279.296875 384.699219 C 279.707031 385.109375 280.097656 385.539062 280.464844 385.992188 C 280.835938 386.441406 281.183594 386.90625 281.503906 387.390625 C 281.828125 387.875 282.128906 388.375 282.402344 388.886719 C 282.675781 389.398438 282.925781 389.925781 283.148438 390.464844 C 283.371094 391 283.566406 391.546875 283.734375 392.105469 C 283.902344 392.664062 284.046875 393.226562 284.160156 393.796875 C 284.273438 394.367188 284.359375 394.941406 284.414062 395.523438 C 284.472656 396.101562 284.5 396.683594 284.5 397.265625 Z M 284.5 397.265625 " fill-opacity="1" fill-rule="nonzero"/></g></g><g clip-path="url(#03c1caa0ed)"><g clip-path="url(#77df7cdac4)"><path fill="#0b162c" d="M 251.410156 428.136719 L 281.941406 428.136719 L 281.941406 526.347656 L 251.410156 526.347656 Z M 251.410156 428.136719 " fill-opacity="1" fill-rule="nonzero"/></g></g><g clip-path="url(#3ae956167f)"><g clip-path="url(#65b155ee0d)"><path fill="#0b162c" d="M 301.140625 428.136719 L 330.199219 428.136719 L 330.199219 526.347656 L 301.140625 526.347656 Z M 301.140625 428.136719 " fill-opacity="1" fill-rule="nonzero"/></g></g><g clip-path="url(#daab1a1cc8)"><g clip-path="url(#811fc48839)"><path fill="#0b162c" d="M 302.398438 480.425781 L 331.453125 480.425781 L 331.453125 526.347656 L 302.398438 526.347656 Z M 302.398438 480.425781 " fill-opacity="1" fill-rule="nonzero"/></g></g><g clip-path="url(#08d6ded0dc)"><g clip-path="url(#53756182cf)"><path fill="#0b162c" d="M 331.453125 480.425781 C 331.453125 480.425781 331 467.6875 334.359375 461.066406 C 334.359375 461.066406 337.71875 452.90625 348.277344 452.859375 C 348.277344 452.859375 360.664062 450.695312 364.214844 462.984375 C 364.214844 462.984375 365.558594 469.800781 365.558594 472.683594 C 365.558594 475.5625 365.65625 526.347656 365.65625 526.347656 L 396.085938 526.347656 L 396.085938 470.089844 C 396.085938 470.089844 398.296875 438.3125 379.222656 429.605469 C 379.222656 429.605469 347.859375 415.527344 330.839844 441.382812 C 330.839844 441.382812 327.125 443.941406 326.613281 436.773438 C 326.101562 429.605469 321.75 447.785156 321.621094 448.167969 C 321.492188 448.550781 326.613281 484.394531 326.613281 484.394531 Z M 331.453125 480.425781 " fill-opacity="1" fill-rule="nonzero"/></g></g></svg>