<svg xmlns="http://www.w3.org/2000/svg" xmlns:xlink="http://www.w3.org/1999/xlink" width="793" zoomAndPan="magnify" viewBox="0 0 594.95996 842.24997" height="1122" preserveAspectRatio="xMidYMid meet" version="1.0"><defs><clipPath id="d13f55e922"><path d="M 158.433594 281.386719 L 436.4375 281.386719 L 436.4375 559.390625 L 158.433594 559.390625 Z M 158.433594 281.386719 " clip-rule="nonzero"/></clipPath><clipPath id="d431b7d304"><path d="M 382 377 L 436.4375 377 L 436.4375 450 L 382 450 Z M 382 377 " clip-rule="nonzero"/></clipPath><clipPath id="6133106400"><path d="M 158.433594 377 L 214 377 L 214 444 L 158.433594 444 Z M 158.433594 377 " clip-rule="nonzero"/></clipPath></defs><g clip-path="url(#d13f55e922)"><path fill="#f2f2f2" d="M 436.4375 420.386719 C 436.4375 497.15625 374.203125 559.390625 297.4375 559.390625 C 226.609375 559.390625 168.15625 506.417969 159.535156 437.921875 C 158.808594 432.183594 158.433594 426.328125 158.433594 420.386719 C 158.433594 409.503906 159.683594 398.914062 162.046875 388.75 C 176.367188 327.230469 231.550781 281.386719 297.4375 281.386719 C 363.160156 281.386719 418.230469 327 432.710938 388.300781 C 434.609375 396.316406 435.808594 404.597656 436.246094 413.082031 C 436.375 415.503906 436.4375 417.9375 436.4375 420.386719 Z M 436.4375 420.386719 " fill-opacity="1" fill-rule="nonzero"/></g><path fill="#3b8739" d="M 290.484375 431.550781 L 290.484375 395.410156 L 259.183594 377.339844 L 227.886719 395.410156 L 227.886719 431.550781 L 259.183594 449.621094 Z M 290.484375 431.550781 " fill-opacity="1" fill-rule="nonzero"/><g clip-path="url(#d431b7d304)"><path fill="#333333" d="M 413.742188 426.066406 L 434.140625 437.847656 L 413.742188 449.625 L 382.449219 431.554688 L 382.449219 395.414062 L 413.742188 377.34375 L 432.710938 388.300781 C 434.609375 396.316406 435.808594 404.597656 436.246094 413.078125 L 424.648438 419.777344 L 424.648438 407.183594 L 413.742188 400.894531 L 402.839844 407.183594 L 402.839844 419.777344 Z M 413.742188 426.066406 " fill-opacity="1" fill-rule="nonzero"/></g><path fill="#66a060" d="M 419.816406 416.988281 L 419.816406 409.972656 L 413.742188 406.46875 L 407.667969 409.972656 L 407.667969 416.988281 L 413.742188 420.496094 Z M 419.816406 416.988281 " fill-opacity="1" fill-rule="nonzero"/><g clip-path="url(#6133106400)"><path fill="#333333" d="M 213.105469 395.414062 L 213.105469 443.070312 L 192.234375 431.164062 L 192.234375 406.730469 L 181.8125 400.714844 L 171.390625 406.730469 L 171.390625 431.160156 L 159.535156 437.921875 C 158.808594 432.183594 158.433594 426.328125 158.433594 420.386719 C 158.433594 409.503906 159.683594 398.914062 162.046875 388.75 L 181.8125 377.34375 Z M 213.105469 395.414062 " fill-opacity="1" fill-rule="nonzero"/></g><path fill="#6da75d" d="M 259.183594 377.339844 L 290.480469 431.546875 L 259.183594 449.617188 L 227.886719 395.410156 Z M 259.183594 377.339844 " fill-opacity="1" fill-rule="nonzero"/><path fill="#55a344" d="M 227.886719 431.550781 L 238.636719 414.027344 L 227.886719 395.410156 Z M 227.886719 431.550781 " fill-opacity="1" fill-rule="nonzero"/><path fill="#639d57" d="M 280.050781 413.480469 L 290.484375 395.410156 L 259.183594 377.339844 Z M 280.050781 413.480469 " fill-opacity="1" fill-rule="nonzero"/><path fill="#333333" d="M 346.605469 335.457031 L 346.605469 383.402344 L 336.113281 377.34375 L 304.8125 395.414062 L 304.8125 431.554688 L 336.113281 449.625 L 367.410156 431.554688 L 367.410156 346.589844 Z M 346.546875 419.503906 L 336.113281 425.527344 L 325.679688 419.503906 L 325.679688 407.457031 L 336.113281 401.433594 L 346.546875 407.457031 Z M 346.546875 419.503906 " fill-opacity="1" fill-rule="nonzero"/><path fill="#66a060" d="M 311.632812 476.160156 C 311.632812 476.160156 311.019531 470.878906 305.371094 470.878906 C 299.71875 470.878906 295.847656 471.617188 295.847656 474.746094 C 295.847656 477.878906 306.84375 477.878906 311.023438 479.109375 C 315.199219 480.339844 318.882812 483.53125 317.039062 489.183594 C 315.199219 494.835938 309.546875 495.449219 300.824219 495.449219 C 292.101562 495.449219 290.136719 488.199219 290.136719 485.371094 L 295.046875 485.371094 C 295.046875 485.371094 294.4375 489.796875 300.210938 490.535156 C 305.980469 491.269531 311.503906 491.683594 312.25 487.21875 C 313.230469 481.320312 293.574219 484.269531 291.851562 478.496094 C 290.402344 473.621094 291.242188 467.195312 301.070312 466.210938 C 310.898438 465.226562 316.304688 469.566406 316.304688 476.039062 Z M 311.632812 476.160156 " fill-opacity="1" fill-rule="nonzero"/><path fill="#66a060" d="M 264.164062 499.191406 L 275.027344 505.460938 C 280.488281 508.613281 287.308594 504.675781 287.308594 498.371094 L 287.308594 467.152344 L 282.882812 467.152344 L 282.882812 497.140625 C 282.882812 500.582031 279.15625 502.734375 276.175781 501.011719 L 268.589844 496.636719 L 268.589844 464.632812 L 296.308594 448.632812 L 324.019531 464.632812 L 324.019531 496.636719 L 296.308594 512.632812 L 288.320312 508.023438 L 283.109375 510.128906 L 296.308594 517.746094 L 328.449219 499.1875 L 328.449219 462.078125 L 296.308594 443.519531 L 264.164062 462.078125 Z M 264.164062 499.191406 " fill-opacity="1" fill-rule="nonzero"/></svg>