<svg xmlns="http://www.w3.org/2000/svg" xmlns:xlink="http://www.w3.org/1999/xlink" width="793" zoomAndPan="magnify" viewBox="0 0 594.95996 842.24997" height="1122" preserveAspectRatio="xMidYMid meet" version="1.0"><defs><clipPath id="abca966b8d"><path d="M 178.667969 316 L 416.207031 316 L 416.207031 525 L 178.667969 525 Z M 178.667969 316 " clip-rule="nonzero"/></clipPath></defs><path fill="#53c1de" d="M 318.6875 420.105469 C 318.6875 420.800781 318.652344 421.5 318.585938 422.191406 C 318.515625 422.886719 318.414062 423.574219 318.277344 424.257812 C 318.144531 424.941406 317.972656 425.617188 317.773438 426.285156 C 317.570312 426.953125 317.335938 427.609375 317.070312 428.253906 C 316.804688 428.898438 316.507812 429.527344 316.179688 430.140625 C 315.851562 430.757812 315.492188 431.351562 315.105469 431.933594 C 314.71875 432.511719 314.304688 433.070312 313.863281 433.609375 C 313.421875 434.148438 312.957031 434.667969 312.464844 435.160156 C 311.972656 435.652344 311.457031 436.121094 310.917969 436.5625 C 310.378906 437.003906 309.820312 437.417969 309.242188 437.808594 C 308.664062 438.195312 308.070312 438.550781 307.453125 438.878906 C 306.839844 439.210938 306.210938 439.507812 305.570312 439.773438 C 304.925781 440.039062 304.273438 440.277344 303.605469 440.476562 C 302.941406 440.679688 302.265625 440.847656 301.582031 440.984375 C 300.902344 441.121094 300.214844 441.222656 299.519531 441.292969 C 298.828125 441.359375 298.132812 441.394531 297.4375 441.394531 C 296.742188 441.394531 296.046875 441.359375 295.355469 441.292969 C 294.664062 441.222656 293.976562 441.121094 293.292969 440.984375 C 292.609375 440.847656 291.933594 440.679688 291.269531 440.476562 C 290.601562 440.277344 289.949219 440.039062 289.304688 439.773438 C 288.664062 439.507812 288.035156 439.210938 287.421875 438.878906 C 286.808594 438.550781 286.210938 438.195312 285.632812 437.808594 C 285.054688 437.417969 284.496094 437.003906 283.957031 436.5625 C 283.417969 436.121094 282.902344 435.652344 282.410156 435.160156 C 281.917969 434.667969 281.453125 434.148438 281.011719 433.609375 C 280.570312 433.070312 280.15625 432.511719 279.769531 431.933594 C 279.382812 431.351562 279.023438 430.757812 278.695312 430.140625 C 278.367188 429.527344 278.070312 428.898438 277.804688 428.253906 C 277.539062 427.609375 277.304688 426.953125 277.101562 426.285156 C 276.902344 425.617188 276.730469 424.941406 276.597656 424.257812 C 276.460938 423.574219 276.359375 422.886719 276.289062 422.191406 C 276.222656 421.5 276.1875 420.800781 276.1875 420.105469 C 276.1875 419.40625 276.222656 418.710938 276.289062 418.019531 C 276.359375 417.324219 276.460938 416.636719 276.597656 415.953125 C 276.730469 415.269531 276.902344 414.59375 277.101562 413.925781 C 277.304688 413.257812 277.539062 412.601562 277.804688 411.957031 C 278.070312 411.3125 278.367188 410.683594 278.695312 410.070312 C 279.023438 409.453125 279.382812 408.859375 279.769531 408.277344 C 280.15625 407.699219 280.570312 407.136719 281.011719 406.601562 C 281.453125 406.0625 281.917969 405.542969 282.410156 405.050781 C 282.902344 404.558594 283.417969 404.089844 283.957031 403.648438 C 284.496094 403.207031 285.054688 402.792969 285.632812 402.402344 C 286.210938 402.015625 286.808594 401.660156 287.421875 401.328125 C 288.035156 401 288.664062 400.703125 289.304688 400.4375 C 289.949219 400.167969 290.601562 399.933594 291.269531 399.734375 C 291.933594 399.53125 292.609375 399.359375 293.292969 399.226562 C 293.976562 399.089844 294.664062 398.988281 295.355469 398.917969 C 296.046875 398.851562 296.742188 398.816406 297.4375 398.816406 C 298.132812 398.816406 298.828125 398.851562 299.519531 398.917969 C 300.214844 398.988281 300.902344 399.089844 301.582031 399.226562 C 302.265625 399.359375 302.941406 399.53125 303.605469 399.734375 C 304.273438 399.933594 304.925781 400.167969 305.570312 400.4375 C 306.210938 400.703125 306.839844 401 307.453125 401.328125 C 308.070312 401.660156 308.664062 402.015625 309.242188 402.402344 C 309.820312 402.792969 310.378906 403.207031 310.917969 403.648438 C 311.457031 404.089844 311.972656 404.558594 312.464844 405.050781 C 312.957031 405.542969 313.421875 406.0625 313.863281 406.601562 C 314.304688 407.136719 314.71875 407.699219 315.105469 408.277344 C 315.492188 408.859375 315.851562 409.453125 316.179688 410.070312 C 316.507812 410.683594 316.804688 411.3125 317.070312 411.957031 C 317.335938 412.601562 317.570312 413.257812 317.773438 413.925781 C 317.972656 414.59375 318.144531 415.269531 318.277344 415.953125 C 318.414062 416.636719 318.515625 417.324219 318.585938 418.019531 C 318.652344 418.710938 318.6875 419.40625 318.6875 420.105469 Z M 318.6875 420.105469 " fill-opacity="1" fill-rule="nonzero"/><g clip-path="url(#abca966b8d)"><path fill="#53c1de" d="M 223.34375 457.804688 C 225.433594 458.5 227.523438 459.203125 229.660156 459.808594 C 228.96875 462.59375 228.363281 465.339844 227.800781 468.175781 C 222.929688 493.976562 226.730469 514.425781 238.882812 521.445312 C 251.414062 528.691406 272.476562 521.257812 292.984375 503.269531 C 294.605469 501.832031 296.230469 500.34375 297.851562 498.757812 C 299.890625 500.761719 302.03125 502.664062 304.15625 504.519531 C 324.011719 521.625 343.640625 528.542969 355.753906 521.535156 C 368.285156 514.285156 372.359375 492.300781 367.074219 465.53125 C 366.660156 463.488281 366.195312 461.394531 365.679688 459.253906 C 367.164062 458.835938 368.601562 458.371094 370.046875 457.90625 C 396.816406 449.03125 416.207031 434.660156 416.207031 419.925781 C 416.207031 405.847656 397.925781 392.183594 372.6875 383.488281 L 372.6875 383.476562 C 370.183594 382.644531 367.679688 381.851562 365.175781 381.105469 C 365.589844 379.390625 365.96875 377.664062 366.332031 375.949219 C 372.042969 348.246094 368.285156 325.996094 355.613281 318.648438 C 343.410156 311.625 323.507812 318.925781 303.375 336.496094 C 301.375 338.210938 299.4375 340.027344 297.578125 341.839844 C 296.320312 340.628906 295.023438 339.421875 293.726562 338.261719 C 272.613281 319.480469 251.464844 311.578125 238.796875 318.972656 C 226.640625 326.042969 223.019531 347.007812 228.125 373.203125 C 228.640625 375.8125 229.195312 378.359375 229.839844 380.96875 C 226.867188 381.800781 223.949219 382.734375 221.207031 383.714844 C 196.433594 392.3125 178.667969 405.886719 178.667969 419.925781 C 178.667969 434.433594 197.59375 448.96875 223.34375 457.804688 Z M 286.441406 495.671875 C 278.789062 502.695312 269.921875 508.265625 260.273438 512.085938 C 255.125 514.542969 249.1875 514.78125 243.890625 512.6875 C 236.519531 508.414062 233.449219 492.003906 237.628906 469.921875 C 238.140625 467.324219 238.695312 464.714844 239.339844 462.160156 C 249.730469 464.390625 260.214844 465.925781 270.84375 466.710938 C 276.96875 475.40625 283.691406 483.726562 290.886719 491.527344 C 289.402344 492.964844 287.917969 494.363281 286.433594 495.664062 Z M 345.359375 408.394531 C 343.183594 404.300781 340.957031 400.214844 338.628906 396.21875 C 336.355469 392.273438 333.988281 388.363281 331.535156 384.507812 C 339.007812 385.441406 346.152344 386.6875 352.832031 388.226562 C 350.695312 395.109375 348.191406 401.800781 345.359375 408.394531 Z M 345.449219 431.539062 C 348.417969 438.28125 351.023438 445.113281 353.289062 452.132812 C 346.09375 453.757812 338.820312 455.019531 331.484375 455.851562 C 333.988281 451.945312 336.355469 447.949219 338.679688 443.953125 C 341.046875 439.859375 343.273438 435.722656 345.449219 431.539062 Z M 340.085938 419.976562 C 336.976562 426.390625 333.632812 432.707031 330.070312 438.933594 C 326.546875 445.113281 322.785156 451.113281 318.847656 457.0625 C 311.9375 457.578125 304.742188 457.804688 297.457031 457.804688 C 290.171875 457.804688 283.125 457.578125 276.308594 457.152344 C 272.269531 451.25 268.46875 445.203125 264.894531 439.023438 C 261.320312 432.847656 258.027344 426.570312 254.917969 420.15625 L 254.898438 420.15625 C 257.957031 413.738281 261.300781 407.460938 264.824219 401.285156 C 268.347656 395.109375 272.160156 389.109375 276.148438 383.207031 C 283.105469 382.691406 290.203125 382.414062 297.449219 382.414062 C 304.691406 382.414062 311.828125 382.691406 318.746094 383.207031 C 322.6875 389.070312 326.445312 395.058594 330.019531 401.195312 C 333.59375 407.332031 336.929688 413.609375 340.085938 419.976562 Z M 256.183594 396.308594 C 253.910156 400.253906 251.683594 404.289062 249.59375 408.386719 C 246.671875 401.464844 244.210938 394.679688 242.171875 388.125 C 248.851562 386.640625 255.949219 385.429688 263.320312 384.496094 C 260.875 388.355469 258.460938 392.300781 256.183594 396.308594 Z M 249.601562 431.90625 C 251.742188 436 253.917969 440.046875 256.234375 444.042969 C 258.601562 448.085938 261.015625 452.132812 263.570312 456.078125 C 256.332031 455.285156 249.136719 454.125 242.042969 452.589844 C 244.082031 445.894531 246.632812 438.976562 249.601562 431.90625 Z M 297.8125 484.371094 C 293.082031 479.261719 288.351562 473.601562 283.757812 467.503906 C 288.214844 467.691406 292.804688 467.78125 297.449219 467.78125 C 302.226562 467.78125 306.910156 467.691406 311.550781 467.453125 C 307.285156 473.351562 302.691406 478.984375 297.8125 484.371094 Z M 358.457031 498.332031 C 358.03125 503.992188 355.25 509.289062 350.792969 512.867188 C 343.421875 517.140625 327.695312 511.570312 310.710938 496.972656 C 308.761719 495.296875 306.8125 493.480469 304.820312 491.628906 C 311.917969 483.773438 318.460938 475.457031 324.398438 466.71875 C 335.019531 465.835938 345.597656 464.210938 356.039062 461.839844 C 356.503906 463.746094 356.921875 465.648438 357.296875 467.511719 C 359.574219 477.558594 359.941406 488.007812 358.457031 498.332031 Z M 362.484375 390.683594 C 364.898438 391.378906 367.214844 392.121094 369.441406 392.867188 C 391.058594 400.304688 406.230469 411.371094 406.230469 419.828125 C 406.230469 428.941406 390.039062 440.699219 366.886719 448.367188 C 365.589844 448.78125 364.292969 449.199219 362.949219 449.574219 C 359.703125 439.441406 355.714844 429.546875 351.121094 419.917969 C 355.574219 410.4375 359.335938 400.671875 362.484375 390.683594 Z M 309.910156 344.019531 C 327.179688 328.96875 343.273438 323.070312 350.605469 327.292969 C 358.445312 331.804688 361.464844 350.019531 356.546875 373.957031 C 356.21875 375.535156 355.890625 377.070312 355.476562 378.609375 C 345.171875 376.289062 334.742188 374.613281 324.25 373.679688 C 318.222656 365.023438 311.628906 356.753906 304.484375 348.988281 C 306.296875 347.273438 308.058594 345.648438 309.910156 344.019531 Z M 297.535156 356.109375 C 302.40625 361.402344 307 366.976562 311.265625 372.738281 C 302.078125 372.320312 292.84375 372.320312 283.660156 372.738281 C 288.203125 366.75 292.894531 361.175781 297.535156 356.109375 Z M 243.714844 327.621094 C 251.511719 323.070312 268.8125 329.574219 287.046875 345.746094 C 288.203125 346.769531 289.363281 347.886719 290.570312 349 C 283.375 356.753906 276.742188 365.023438 270.664062 373.667969 C 260.183594 374.601562 249.792969 376.226562 239.488281 378.507812 C 238.882812 376.140625 238.378906 373.71875 237.863281 371.300781 C 233.5 348.800781 236.378906 331.84375 243.714844 327.621094 Z M 224.464844 393.144531 C 227.105469 392.210938 229.796875 391.378906 232.492188 390.585938 C 235.648438 400.671875 239.449219 410.578125 243.851562 420.144531 C 239.398438 429.863281 235.550781 439.898438 232.351562 450.121094 L 232.34375 450.128906 C 230.390625 449.574219 228.492188 448.96875 226.59375 448.316406 C 216.714844 445.203125 205.480469 440.273438 197.363281 433.820312 C 192.683594 430.566406 189.527344 425.550781 188.644531 419.917969 C 188.644531 411.410156 203.304688 400.53125 224.464844 393.144531 Z M 224.464844 393.144531 " fill-opacity="1" fill-rule="nonzero"/></g></svg>