<svg xmlns="http://www.w3.org/2000/svg" xmlns:xlink="http://www.w3.org/1999/xlink" width="793" zoomAndPan="magnify" viewBox="0 0 594.95996 842.24997" height="1122" preserveAspectRatio="xMidYMid meet" version="1.0"><defs><clipPath id="5eb70123bf"><path d="M 178.667969 453 L 246 453 L 246 545 L 178.667969 545 Z M 178.667969 453 " clip-rule="nonzero"/></clipPath><clipPath id="e7b3d96b17"><path d="M 239 295.6875 L 355 295.6875 L 355 350 L 239 350 Z M 239 295.6875 " clip-rule="nonzero"/></clipPath><clipPath id="cc20896aec"><path d="M 239 295.6875 L 297 295.6875 L 297 350 L 239 350 Z M 239 295.6875 " clip-rule="nonzero"/></clipPath></defs><path fill="#cfd8dc" d="M 263.375 462.445312 C 263.375 457.40625 267.460938 453.316406 272.5 453.316406 L 321.160156 453.316406 C 326.199219 453.316406 330.285156 457.40625 330.285156 462.445312 L 330.285156 535.480469 C 330.285156 540.519531 326.199219 544.609375 321.160156 544.609375 L 272.5 544.609375 C 267.460938 544.609375 263.375 540.519531 263.375 535.480469 Z M 281.621094 471.574219 L 281.621094 526.351562 L 312.035156 526.351562 L 312.035156 471.574219 Z M 281.621094 471.574219 " fill-opacity="1" fill-rule="evenodd"/><path fill="#b4bcc0" d="M 296.828125 453.316406 L 272.5 453.316406 C 267.460938 453.316406 263.375 457.40625 263.375 462.445312 L 263.375 535.480469 C 263.375 540.519531 267.460938 544.609375 272.5 544.609375 L 296.828125 544.609375 L 296.828125 526.351562 L 281.621094 526.351562 L 281.621094 471.574219 L 296.828125 471.574219 Z M 296.828125 453.316406 " fill-opacity="1" fill-rule="evenodd"/><g clip-path="url(#5eb70123bf)"><path fill="#b4bcc0" d="M 178.214844 462.445312 C 178.214844 457.40625 182.300781 453.316406 187.339844 453.316406 L 236 453.316406 C 241.039062 453.316406 245.125 457.40625 245.125 462.445312 C 245.125 467.488281 241.039062 471.574219 236 471.574219 L 196.464844 471.574219 L 196.464844 489.835938 L 236 489.835938 C 241.039062 489.835938 245.125 493.921875 245.125 498.964844 L 245.125 535.480469 C 245.125 540.519531 241.039062 544.609375 236 544.609375 L 187.339844 544.609375 C 182.300781 544.609375 178.214844 540.519531 178.214844 535.480469 C 178.214844 530.4375 182.300781 526.351562 187.339844 526.351562 L 226.878906 526.351562 L 226.878906 508.09375 L 187.339844 508.09375 C 182.300781 508.09375 178.214844 504.003906 178.214844 498.964844 Z M 178.214844 462.445312 " fill-opacity="1" fill-rule="evenodd"/></g><path fill="#cfd8dc" d="M 312.035156 535.480469 C 312.035156 530.4375 316.121094 526.351562 321.160156 526.351562 L 345.492188 526.351562 C 350.53125 526.351562 354.617188 530.4375 354.617188 535.480469 C 354.617188 540.519531 350.53125 544.609375 345.492188 544.609375 L 321.160156 544.609375 C 316.121094 544.609375 312.035156 540.519531 312.035156 535.480469 Z M 312.035156 535.480469 " fill-opacity="1" fill-rule="evenodd"/><path fill="#cfd8dc" d="M 369.824219 441.144531 C 374.863281 441.144531 378.945312 445.234375 378.945312 450.273438 L 378.945312 526.351562 L 406.320312 526.351562 C 411.359375 526.351562 415.441406 530.4375 415.441406 535.480469 C 415.441406 540.519531 411.359375 544.609375 406.320312 544.609375 L 369.824219 544.609375 C 364.785156 544.609375 360.699219 540.519531 360.699219 535.480469 L 360.699219 450.273438 C 360.699219 445.234375 364.785156 441.144531 369.824219 441.144531 Z M 369.824219 441.144531 " fill-opacity="1" fill-rule="evenodd"/><path fill="#5e94ff" d="M 248.167969 313.339844 C 243.128906 313.339844 239.042969 317.425781 239.042969 322.46875 L 239.042969 407.671875 C 239.042969 413.742188 242.355469 418.429688 245.9375 421.609375 C 249.535156 424.800781 254.214844 427.253906 259.214844 429.128906 C 269.285156 432.910156 282.585938 435.058594 296.828125 435.058594 C 311.070312 435.058594 324.371094 432.910156 334.441406 429.128906 C 339.445312 427.253906 344.125 424.800781 347.71875 421.609375 C 351.304688 418.429688 354.617188 413.742188 354.617188 407.671875 L 354.617188 322.46875 C 354.617188 317.425781 350.53125 313.339844 345.492188 313.339844 Z M 248.167969 313.339844 " fill-opacity="1" fill-rule="nonzero"/><path fill="#5485e5" d="M 296.828125 313.339844 L 296.828125 435.058594 C 282.585938 435.058594 269.285156 432.910156 259.214844 429.128906 C 254.214844 427.253906 249.535156 424.800781 245.9375 421.609375 C 242.355469 418.429688 239.042969 413.742188 239.042969 407.671875 L 239.042969 322.46875 C 239.042969 317.425781 243.128906 313.339844 248.167969 313.339844 Z M 296.828125 313.339844 " fill-opacity="1" fill-rule="evenodd"/><path fill="#7ea9ff" d="M 248.167969 313.339844 C 243.128906 313.339844 239.042969 317.425781 239.042969 322.46875 L 239.042969 365.070312 C 239.042969 371.140625 242.355469 375.828125 245.9375 379.007812 C 249.535156 382.195312 254.214844 384.652344 259.214844 386.527344 C 269.285156 390.308594 282.585938 392.457031 296.828125 392.457031 C 311.070312 392.457031 324.371094 390.308594 334.441406 386.527344 C 339.445312 384.652344 344.125 382.195312 347.71875 379.007812 C 351.304688 375.828125 354.617188 371.140625 354.617188 365.070312 L 354.617188 322.46875 C 354.617188 317.425781 350.53125 313.339844 345.492188 313.339844 Z M 248.167969 313.339844 " fill-opacity="1" fill-rule="nonzero"/><path fill="#5e94ff" d="M 296.828125 313.339844 L 296.828125 392.457031 C 282.585938 392.457031 269.285156 390.308594 259.214844 386.527344 C 254.214844 384.652344 249.535156 382.195312 245.9375 379.007812 C 242.355469 375.828125 239.042969 371.140625 239.042969 365.070312 L 239.042969 322.46875 C 239.042969 317.425781 243.128906 313.339844 248.167969 313.339844 Z M 296.828125 313.339844 " fill-opacity="1" fill-rule="evenodd"/><g clip-path="url(#e7b3d96b17)"><path fill="#5e94ff" d="M 296.828125 295.082031 C 282.585938 295.082031 269.285156 297.230469 259.214844 301.007812 C 254.214844 302.886719 249.535156 305.339844 245.9375 308.53125 C 242.355469 311.710938 239.042969 316.398438 239.042969 322.46875 C 239.042969 328.539062 242.355469 333.226562 245.9375 336.40625 C 249.535156 339.59375 254.214844 342.050781 259.214844 343.925781 C 269.285156 347.703125 282.585938 349.855469 296.828125 349.855469 C 311.070312 349.855469 324.371094 347.703125 334.441406 343.925781 C 339.445312 342.050781 344.125 339.59375 347.71875 336.40625 C 351.304688 333.226562 354.617188 328.539062 354.617188 322.46875 C 354.617188 316.398438 351.304688 311.710938 347.71875 308.53125 C 344.125 305.339844 339.445312 302.886719 334.441406 301.007812 C 324.371094 297.230469 311.070312 295.082031 296.828125 295.082031 Z M 296.828125 295.082031 " fill-opacity="1" fill-rule="nonzero"/></g><g clip-path="url(#cc20896aec)"><path fill="#5485e5" d="M 296.828125 295.082031 L 296.828125 349.855469 C 282.585938 349.855469 269.285156 347.703125 259.214844 343.925781 C 254.214844 342.050781 249.535156 339.59375 245.9375 336.40625 C 242.355469 333.226562 239.042969 328.539062 239.042969 322.46875 C 239.042969 316.398438 242.355469 311.710938 245.9375 308.53125 C 249.535156 305.339844 254.214844 302.886719 259.214844 301.007812 C 269.285156 297.230469 282.585938 295.082031 296.828125 295.082031 Z M 296.828125 295.082031 " fill-opacity="1" fill-rule="evenodd"/></g></svg>